<svg width="1000" height="1000" viewBox="0 0 1000 1000" fill="none" xmlns="http://www.w3.org/2000/svg">
<path d="M500 1000C776.142 1000 1000 776.142 1000 500C1000 223.858 776.142 0 500 0C223.858 0 0 223.858 0 500C0 776.142 223.858 1000 500 1000Z" fill="white"/>
<path d="M296.382 733.235C265.358 733.235 236.466 729.939 209.708 723.346C183.337 716.366 161.62 706.865 144.556 694.843C137.964 689.801 133.116 684.566 130.014 679.136C127.299 673.707 125.942 666.727 125.942 658.195C125.942 646.561 129.432 636.478 136.412 627.946C143.393 619.414 151.537 615.148 160.844 615.148C165.886 615.148 170.733 615.924 175.387 617.475C180.041 619.026 185.858 621.935 192.838 626.201C208.738 635.12 224.444 641.519 239.957 645.397C255.857 649.275 273.696 651.214 293.474 651.214C316.354 651.214 333.612 647.918 345.246 641.325C357.268 634.345 363.279 624.262 363.279 611.076C363.279 602.157 357.656 594.595 346.409 588.39C335.551 581.797 314.609 575.398 283.585 569.193C245.192 561.049 215.137 551.354 193.42 540.108C171.703 528.861 156.384 515.676 147.465 500.552C138.933 485.039 134.667 466.425 134.667 444.708C134.667 419.888 142.036 397.395 156.772 377.229C171.509 357.063 191.675 341.357 217.27 330.111C243.253 318.477 272.338 312.659 304.526 312.659C332.836 312.659 358.044 315.762 380.149 321.967C402.254 328.172 422.419 337.867 440.646 351.052C447.627 356.094 452.474 361.523 455.189 367.34C458.292 372.769 459.843 379.556 459.843 387.7C459.843 399.334 456.352 409.417 449.372 417.949C442.779 426.481 434.829 430.746 425.522 430.746C420.48 430.746 415.827 430.165 411.561 429.001C407.295 427.45 401.284 424.348 393.528 419.694C391.589 418.531 385.966 415.622 376.658 410.968C367.739 405.927 357.074 402.049 344.664 399.334C332.642 396.232 319.457 394.68 305.108 394.68C285.33 394.68 269.43 398.559 257.408 406.315C245.386 413.683 239.375 423.572 239.375 435.982C239.375 443.35 241.508 449.361 245.774 454.015C250.04 458.669 257.99 463.322 269.624 467.976C281.258 472.242 298.515 476.702 321.396 481.355C358.625 489.499 387.905 499.388 409.234 511.022C430.563 522.269 445.688 535.454 454.607 550.579C463.527 565.703 467.987 583.542 467.987 604.096C467.987 629.691 460.812 652.378 446.463 672.156C432.115 691.546 411.949 706.671 385.966 717.529C360.37 728 330.509 733.235 296.382 733.235ZM803.669 515.094C827.713 522.463 846.134 534.872 858.932 552.324C871.729 569.387 878.128 590.523 878.128 615.73C878.128 638.223 872.117 658.001 860.095 675.064C848.461 691.74 831.591 704.732 809.486 714.039C787.769 723.346 762.174 728 732.701 728H577.966C562.066 728 549.85 723.734 541.318 715.202C532.787 706.671 528.521 694.455 528.521 678.555V367.34C528.521 351.44 532.787 339.224 541.318 330.692C549.85 322.161 562.066 317.895 577.966 317.895H726.884C769.93 317.895 804.057 327.59 829.265 346.98C854.86 365.983 867.657 391.772 867.657 424.348C867.657 445.289 862.034 463.904 850.788 480.192C839.541 496.092 823.835 507.726 803.669 515.094ZM632.647 479.028H708.851C729.017 479.028 743.753 475.926 753.061 469.721C762.368 463.516 767.022 453.627 767.022 440.054C767.022 425.705 762.368 415.234 753.061 408.642C743.753 402.049 729.017 398.752 708.851 398.752H632.647V479.028ZM719.322 647.142C740.651 647.142 755.775 643.846 764.695 637.253C774.002 630.273 778.656 619.026 778.656 603.514C778.656 588.002 774.002 576.949 764.695 570.357C755.775 563.376 740.651 559.886 719.322 559.886H632.647V647.142H719.322Z" fill="#6777EF"/>
</svg>
